<svg width="68" height="35" viewBox="0 0 68 35" fill="none" xmlns="http://www.w3.org/2000/svg">
<g clip-path="url(#clip0_38_1863)">
<path d="M29.7217 20.3945L39.6578 20.4666L34.6556 24.9591L29.7217 20.3945Z" fill="white" stroke="white" stroke-width="3.27" stroke-linejoin="round"/>
<path d="M10.4679 18.8406C14.699 18.8406 18.1291 15.5035 18.1291 11.3871C18.1291 7.27064 14.699 3.93359 10.4679 3.93359C6.23669 3.93359 2.80664 7.27064 2.80664 11.3871C2.80664 15.5035 6.23669 18.8406 10.4679 18.8406Z" stroke="white" stroke-width="6.43" stroke-miterlimit="10"/>
<path d="M57.4301 19.1928C61.6636 19.1928 65.0956 15.8539 65.0956 11.7351C65.0956 7.61628 61.6636 4.27734 57.4301 4.27734C53.1966 4.27734 49.7646 7.61628 49.7646 11.7351C49.7646 15.8539 53.1966 19.1928 57.4301 19.1928Z" stroke="white" stroke-width="6.43" stroke-miterlimit="10"/>
<path d="M2.01367 24.957L16.0984 26.077" stroke="white" stroke-width="1.71" stroke-miterlimit="10" stroke-linecap="round"/>
<path d="M1.95801 32.034L15.4153 29.7305" stroke="white" stroke-width="1.71" stroke-miterlimit="10" stroke-linecap="round"/>
<path d="M65.966 25.4297L51.8643 26.3418" stroke="white" stroke-width="1.71" stroke-miterlimit="10" stroke-linecap="round"/>
<path d="M65.911 32.5025L52.4922 30.0039" stroke="white" stroke-width="1.71" stroke-miterlimit="10" stroke-linecap="round"/>
</g>
<defs>
<clipPath id="clip0_38_1863">
<rect width="68" height="35" fill="white"/>
</clipPath>
</defs>
</svg>
